<svg id="help" xmlns="http://www.w3.org/2000/svg" width="24" height="24" viewBox="0 0 24 24">
  <g id="headphone" transform="translate(-620 -188)">
    <path id="Vector" d="M3.462,12.44V9.52a1.84,1.84,0,1,1,3.68,0v2.81a3.6,3.6,0,0,1-3.57,3.57A3.6,3.6,0,0,1,0,12.33V10.17A9.912,9.912,0,0,1,9.952,0,10.04,10.04,0,0,1,20,10.06v2.16a3.57,3.57,0,0,1-7.14,0V9.41a1.84,1.84,0,0,1,3.68,0v3.03" transform="translate(621.998 190.05)" fill="none" stroke="#292d32" stroke-linecap="round" stroke-linejoin="round" stroke-width="1.5"/>
    <path id="Vector-2" data-name="Vector" d="M16.432,15.79a3.6,3.6,0,0,1-3.57-3.57V9.41a1.84,1.84,0,0,1,3.68,0" transform="translate(623.32 222.493) rotate(-90)" fill="none" stroke="#292d32" stroke-linecap="round" stroke-linejoin="round" stroke-width="1.5"/>
    <path id="Vector-3" data-name="Vector" d="M0,0H24V24H0Z" transform="translate(620 188)" fill="none" opacity="0"/>
  </g>
</svg>
