<svg xmlns="http://www.w3.org/2000/svg" width="64" height="64" viewBox="0 0 64 64">
  <g id="vuesax_linear_heart-add" data-name="vuesax/linear/heart-add" transform="translate(-236 -252)" opacity="0.25">
    <g id="heart-add" transform="translate(236 252)">
      <g id="Group" transform="translate(33.03 33.03)">
        <path id="Vector" d="M25.63,12.815A12.815,12.815,0,1,1,12.815,0,12.815,12.815,0,0,1,25.63,12.815Z" transform="translate(0 0)" fill="none" stroke="#4caf50" stroke-linecap="round" stroke-linejoin="round" stroke-width="5"/>
        <g id="Group-2" data-name="Group" transform="translate(8.036 8.303)">
          <path id="Vector-2" data-name="Vector" d="M9.558,0H0" transform="translate(0 4.672)" fill="none" stroke="#4caf50" stroke-linecap="round" stroke-linejoin="round" stroke-width="5"/>
          <path id="Vector-3" data-name="Vector" d="M0,0V9.585" transform="translate(4.779)" fill="none" stroke="#4caf50" stroke-linecap="round" stroke-linejoin="round" stroke-width="5"/>
        </g>
      </g>
      <g id="Group-3" data-name="Group" transform="translate(5.34 8.276)">
        <path id="Vector-4" data-name="Vector" d="M53.321,14.9a29.389,29.389,0,0,1-3.492,13.914,12.783,12.783,0,0,0-18.822,17.3,27.318,27.318,0,0,1-2.693,1.093,5.814,5.814,0,0,1-3.306,0C17.276,44.568,0,33.56,0,14.9A14.8,14.8,0,0,1,26.66,5.944,14.8,14.8,0,0,1,53.321,14.9Z" fill="none" stroke="#4caf50" stroke-linecap="round" stroke-linejoin="round" stroke-width="5"/>
      </g>
      <path id="Vector-5" data-name="Vector" d="M0,0H64V64H0Z" transform="translate(64 64) rotate(180)" fill="none" opacity="0"/>
    </g>
  </g>
</svg>
