<svg xmlns="http://www.w3.org/2000/svg" width="64" height="64" viewBox="0 0 64 64">
  <g id="vuesax_linear_heart-tick" data-name="vuesax/linear/heart-tick" transform="translate(-684 -188)" opacity="0.25">
    <g id="heart-tick" transform="translate(684 188)">
      <g id="Group" transform="translate(33.083 33.083)">
        <path id="Vector" d="M25.586,12.793a12.386,12.386,0,0,1-1.866,6.583,12.719,12.719,0,0,1-21.855,0A12.628,12.628,0,0,1,0,12.793a12.793,12.793,0,0,1,25.586,0Z" fill="none" stroke="#4caf50" stroke-linecap="round" stroke-linejoin="round" stroke-width="5"/>
        <path id="Vector-2" data-name="Vector" d="M0,3.145,3.145,6.29,9.968,0" transform="translate(7.809 9.648)" fill="none" stroke="#4caf50" stroke-linecap="round" stroke-linejoin="round" stroke-width="5"/>
      </g>
      <path id="Vector-3" data-name="Vector" d="M0,0H64V64H0Z" transform="translate(64 64) rotate(180)" fill="none" opacity="0"/>
      <g id="Group-2" data-name="Group" transform="translate(5.33 8.262)">
        <path id="Vector-4" data-name="Vector" d="M53.339,14.91a29.413,29.413,0,0,1-3.494,13.923,12.789,12.789,0,0,0-18.829,17.31,27.323,27.323,0,0,1-2.694,1.093,5.815,5.815,0,0,1-3.307,0C17.282,44.6,0,33.58,0,14.91A14.806,14.806,0,0,1,26.67,5.948a14.806,14.806,0,0,1,26.67,8.962Z" fill="none" stroke="#4caf50" stroke-linecap="round" stroke-linejoin="round" stroke-width="5"/>
      </g>
    </g>
  </g>
</svg>
